# xmcd CD database file
#
# Track frame offsets:
#	150
#	20457
#	41241
#	66875
#	95650
#	116157
#	132814
#	152237
#	173870
#	197179
#	218118
#	246465
#	269392
#
# Disc length: 3800 seconds
#
# Revision: 0
# Processed by: cddbd v1.5.2PL0 Copyright (c) Steve Scherf et al.
# Submitted via: CDex 1.70beta2
#
DISCID=c70ed60d
DTITLE=上田正樹 - OSAKA
DYEAR=1900
DGENRE=Blues
TTITLE0=スルー・ザ・ナイト
TTITLE1=扉を開けろ！
TTITLE2=悲しい日々
TTITLE3=おまえを救けにゆく
TTITLE4=大阪へ出て来てから
TTITLE5=可愛い女と呼ばれたい
TTITLE6=むかでの錦三
TTITLE7=星空の下で
TTITLE8=そして大人の風の中へ
TTITLE9=わがまま
TTITLE10=悲しい色やね
TTITLE11=Sing My Soul
TTITLE12=Somewhere Sometime
EXTD=
EXTT0=
EXTT1=
EXTT2=
EXTT3=
EXTT4=
EXTT5=
EXTT6=
EXTT7=
EXTT8=
EXTT9=
EXTT10=
EXTT11=
EXTT12=
PLAYORDER=
